<svg xmlns="http://www.w3.org/2000/svg" width="26" height="21" viewBox="0 0 26 21" fill="none">
<path fill-rule="evenodd" clip-rule="evenodd" d="M12.8678 12.8163L12.9995 12.8163L13.2942 12.8173C15.5466 12.8322 20.6938 13.0597 20.6938 16.5485C20.6938 20.0143 15.726 20.2404 13.3293 20.2551L12.4414 20.2551C10.1889 20.2403 5.04065 20.013 5.04065 16.5286C5.04065 13.0584 10.1889 12.8321 12.4414 12.8173L12.7361 12.8163C12.7818 12.8163 12.8257 12.8163 12.8678 12.8163ZM12.8678 14.5663C10.0958 14.5663 6.79065 14.907 6.79065 16.5286C6.79065 18.1136 9.89854 18.4842 12.6145 18.5052L12.8678 18.5061C15.6398 18.5061 18.9438 18.1666 18.9438 16.5485C18.9438 14.9105 15.6398 14.5663 12.8678 14.5663ZM22.147 12.3429C24.9739 12.7664 25.5677 14.094 25.5677 15.1335C25.5677 15.7682 25.318 16.9267 23.6497 17.5625C23.547 17.601 23.442 17.6197 23.3382 17.6197C22.9858 17.6197 22.6533 17.405 22.5203 17.0562C22.3477 16.6047 22.5752 16.0984 23.0267 15.9269C23.8177 15.6259 23.8177 15.2934 23.8177 15.1335C23.8177 14.6225 23.1679 14.2655 21.8869 14.0742C21.4097 14.0019 21.0795 13.5574 21.1507 13.0779C21.2218 12.5995 21.6652 12.281 22.147 12.3429ZM4.58378 13.0779C4.65495 13.5574 4.32478 14.0019 3.84761 14.0742C2.56661 14.2655 1.91678 14.6225 1.91678 15.1335C1.91678 15.2934 1.91678 15.6247 2.70895 15.9269C3.16045 16.0984 3.38795 16.6047 3.21528 17.0562C3.08228 17.405 2.74978 17.6197 2.39745 17.6197C2.29361 17.6197 2.18861 17.601 2.08595 17.5625C0.416445 16.9255 0.166779 15.767 0.166779 15.1335C0.166779 14.0952 0.760612 12.7664 3.58861 12.3429C4.07045 12.2822 4.51145 12.5995 4.58378 13.0779ZM12.8678 0.666626C15.8078 0.666626 18.1983 3.05829 18.1983 5.99713C18.1983 8.93596 15.8078 11.3276 12.8678 11.3276H12.8363C11.413 11.323 10.0795 10.7653 9.08081 9.75729C8.07981 8.75046 7.53265 7.41346 7.53843 5.99363C7.53843 3.05829 9.92898 0.666626 12.8678 0.666626ZM12.8678 2.41663C10.8938 2.41663 9.28846 4.02313 9.28846 5.99713C9.28498 6.95379 9.65131 7.84863 10.3221 8.52413C10.993 9.19963 11.8866 9.57413 12.8386 9.57763L12.8678 10.4526V9.57763C14.8418 9.57763 16.4483 7.97229 16.4483 5.99713C16.4483 4.02313 14.8418 2.41663 12.8678 2.41663ZM20.0883 1.80938C22.1393 2.14654 23.6292 3.90121 23.6292 5.98138C23.6245 8.07554 22.06 9.87221 19.9891 10.1627C19.9483 10.1685 19.9075 10.1709 19.8678 10.1709C19.4385 10.1709 19.064 9.85471 19.0021 9.41721C18.9356 8.93771 19.2682 8.49554 19.7477 8.42904C20.961 8.25871 21.8768 7.20638 21.8792 5.97904C21.8792 4.76221 21.0065 3.73321 19.8036 3.53604C19.3276 3.45788 19.0045 3.00754 19.0826 2.53038C19.162 2.05321 19.6088 1.73354 20.0883 1.80938ZM6.65298 2.53038C6.73115 3.00754 6.40798 3.45788 5.93198 3.53604C4.72915 3.73321 3.85648 4.76221 3.85648 5.98138C3.85881 7.20638 4.77465 8.25988 5.98681 8.42904C6.46631 8.49554 6.79881 8.93771 6.73231 9.41721C6.67048 9.85471 6.29598 10.1709 5.86665 10.1709C5.82698 10.1709 5.78615 10.1685 5.74531 10.1627C3.67448 9.87221 2.11115 8.07554 2.10648 5.98371C2.10648 3.90121 3.59631 2.14654 5.64731 1.80938C6.13848 1.73238 6.57365 2.05554 6.65298 2.53038Z" fill="black" fill-opacity="0.6"/>
</svg>