<svg xmlns="http://www.w3.org/2000/svg" width="23" height="21" viewBox="0 0 23 21" fill="none">
  <g clip-path="url(#clip0_1_326)">
    <path d="M21.436 9.96974V17.4846H17.9515L17.7756 17.5035C14.5406 18.1923 12.397 18.6889 11.3287 18.9966C9.90957 19.405 9.38057 19.5048 8.41802 19.5636C7.69812 19.6087 6.88047 19.3557 6.50787 19.0092C6.30202 18.8181 6.14792 18.4254 6.08697 17.8164C6.07435 17.6887 6.02435 17.5664 5.9422 17.4624C5.86006 17.3584 5.7488 17.2765 5.62007 17.2252C5.33372 17.1118 5.09567 16.927 4.89672 16.6582C4.71272 16.4125 4.59312 15.9547 4.57127 15.2922C4.56743 15.1704 4.52961 15.0515 4.46139 14.9468C4.39317 14.842 4.29681 14.7549 4.18142 14.6937C3.51212 14.3398 3.18092 13.9408 3.11192 13.4725C3.03602 12.9549 3.22002 12.3721 3.70187 11.7085C3.81493 11.5529 3.85703 11.3631 3.81924 11.1796C3.78144 10.9961 3.66672 10.8332 3.49947 10.7257C3.03832 10.4296 2.78532 10.018 2.72207 9.43424C2.62087 8.50394 3.27062 7.81619 4.74147 7.67864C6.05147 7.56034 7.37412 7.66104 8.64457 7.97579C8.78869 8.01018 8.94056 8.00627 9.08233 7.96452C9.22409 7.92277 9.34985 7.84493 9.44481 7.74014C9.53976 7.63535 9.59996 7.50798 9.61833 7.37302C9.63669 7.23805 9.61246 7.10111 9.54847 6.97829C8.97347 5.86739 8.65377 4.95074 8.57902 4.24094C8.48127 3.29909 8.71932 2.61659 9.27592 2.05379C9.69797 1.62749 10.373 1.38389 10.626 1.43429C10.9595 1.49939 11.1769 1.67579 11.4598 2.29319C11.6265 2.65859 11.707 2.96939 11.845 3.69494C11.9773 4.38374 12.0497 4.69454 12.2004 5.10194C12.6546 6.33674 13.769 7.61669 15.2651 8.49974C16.3137 9.11789 17.4501 9.6019 18.6427 9.93824C18.7172 9.95921 18.7947 9.96983 18.8727 9.96974H21.436ZM21.4843 18.9157C21.8558 18.9252 22.1893 18.8496 22.4687 18.6711C22.8252 18.4432 22.9931 18.0841 22.9966 17.6704L22.9931 9.98129C23.0322 9.57179 22.9 9.19589 22.5872 8.91659C22.2939 8.65409 21.911 8.53019 21.5062 8.53859H18.9934C17.977 8.24288 17.0079 7.82555 16.1115 7.29749C14.9063 6.58559 14.0185 5.56499 13.6793 4.64519C13.5631 4.32809 13.501 4.06559 13.3837 3.44819C13.225 2.61974 13.1261 2.23439 12.8984 1.73879C12.4269 0.707689 11.8082 0.203689 10.9549 0.0346388C10.1154 -0.131261 8.89297 0.310789 8.12017 1.09199C7.26342 1.95719 6.88507 3.03974 7.02537 4.37744C7.08517 4.95284 7.25997 5.59649 7.54747 6.31364C6.56563 6.18299 5.5699 6.16325 4.58277 6.25484C2.27472 6.47009 0.97867 7.84244 1.16727 9.57704C1.25007 10.3246 1.54677 10.9599 2.05162 11.4586C1.62727 12.2052 1.45822 12.9433 1.56402 13.6636C1.68592 14.4931 2.19192 15.184 3.03372 15.7206C3.09927 16.4482 3.28212 17.0289 3.60642 17.4636C3.86195 17.8148 4.19535 18.1131 4.58507 18.3393C4.70927 19.0575 4.97032 19.6192 5.39697 20.014C6.10422 20.6713 7.36807 21.063 8.52267 20.9916C9.61862 20.9244 10.2672 20.8026 11.7967 20.3616C12.8053 20.0707 14.8937 19.5877 18.0412 18.9157H21.4855H21.4843ZM19.5282 9.64319C19.5285 9.54925 19.5085 9.45618 19.4693 9.36931C19.4301 9.28244 19.3726 9.20348 19.2999 9.13696C19.2273 9.07043 19.141 9.01765 19.046 8.98164C18.9509 8.94562 18.8491 8.92709 18.7462 8.92709C18.6435 8.92736 18.5419 8.9461 18.4471 8.98224C18.3523 9.01838 18.2663 9.0712 18.1939 9.1377C18.1215 9.20419 18.0641 9.28306 18.0251 9.36979C17.9861 9.45652 17.9662 9.54942 17.9665 9.64319V17.7051C17.9663 17.7989 17.9864 17.8917 18.0256 17.9784C18.0647 18.0651 18.1222 18.1439 18.1947 18.2103C18.2672 18.2767 18.3533 18.3294 18.4482 18.3654C18.543 18.4014 18.6446 18.42 18.7473 18.4201C18.85 18.42 18.9517 18.4014 19.0465 18.3654C19.1413 18.3294 19.2274 18.2767 19.2999 18.2103C19.3725 18.1439 19.4299 18.0651 19.4691 17.9784C19.5082 17.8917 19.5283 17.7989 19.5282 17.7051V9.64319Z" fill="black"/>
  </g>
  <defs>
    <clipPath id="clip0_1_326">
      <rect width="23" height="21" fill="white" transform="matrix(-1 0 0 1 23 0)"/>
    </clipPath>
  </defs>
</svg>